<svg width="125" height="42" fill="none" xmlns="http://www.w3.org/2000/svg"><rect x=".5" y=".5" width="124" height="41" rx="6.5" fill="#000" stroke="#fff"/><path d="M29.175 20.365a4.74 4.74 0 012.257-3.977 4.852 4.852 0 00-3.823-2.067c-1.609-.169-3.168.963-3.988.963-.835 0-2.097-.946-3.456-.918a5.092 5.092 0 00-4.285 2.613c-1.853 3.207-.471 7.921 1.304 10.514.888 1.27 1.925 2.688 3.283 2.638 1.329-.055 1.825-.848 3.429-.848 1.589 0 2.055.848 3.44.816 1.426-.023 2.324-1.276 3.18-2.557a10.5 10.5 0 001.455-2.963 4.58 4.58 0 01-2.796-4.214zm-2.617-7.75a4.668 4.668 0 001.067-3.344 4.749 4.749 0 00-3.072 1.59 4.441 4.441 0 00-1.096 3.22 3.927 3.927 0 003.1-1.466zM45.97 26.916h-4.534l-1.089 3.215h-1.92l4.295-11.895h1.995l4.295 11.895h-1.953l-1.088-3.215zm-4.064-1.483H45.5l-1.772-5.219h-.05l-1.772 5.219zm16.382.363c0 2.695-1.443 4.426-3.62 4.426a2.94 2.94 0 01-2.729-1.517h-.04V33h-1.781V21.459h1.723V22.9h.033a3.076 3.076 0 012.761-1.533c2.202 0 3.653 1.74 3.653 4.428zm-1.83 0c0-1.756-.908-2.91-2.292-2.91-1.36 0-2.275 1.178-2.275 2.91 0 1.747.915 2.917 2.275 2.917 1.384 0 2.292-1.146 2.292-2.918zm11.375 0c0 2.695-1.443 4.426-3.62 4.426a2.94 2.94 0 01-2.728-1.517h-.042V33h-1.78V21.459h1.723V22.9h.033a3.077 3.077 0 012.762-1.533c2.2 0 3.652 1.74 3.652 4.428zm-1.83 0c0-1.756-.907-2.91-2.292-2.91-1.36 0-2.275 1.178-2.275 2.91 0 1.747.915 2.917 2.275 2.917 1.385 0 2.292-1.146 2.292-2.918zm8.139 1.021c.132 1.18 1.278 1.954 2.844 1.954 1.5 0 2.58-.775 2.58-1.838 0-.924-.651-1.477-2.193-1.855l-1.541-.372c-2.185-.527-3.199-1.549-3.199-3.207 0-2.052 1.789-3.462 4.329-3.462 2.513 0 4.236 1.41 4.294 3.462H79.46c-.107-1.187-1.088-1.903-2.523-1.903-1.434 0-2.415.725-2.415 1.78 0 .84.627 1.336 2.16 1.715l1.31.321c2.441.578 3.455 1.558 3.455 3.298 0 2.225-1.772 3.62-4.592 3.62-2.638 0-4.42-1.362-4.534-3.513h1.822zm11.146-7.411v2.053h1.65v1.41h-1.65v4.78c0 .743.33 1.09 1.055 1.09a5.73 5.73 0 00.586-.042V30.1c-.326.06-.657.088-.989.082-1.756 0-2.44-.66-2.44-2.341V22.87h-1.262v-1.41H83.5v-2.053h1.79zm2.605 6.389c0-2.729 1.607-4.443 4.113-4.443 2.515 0 4.115 1.714 4.115 4.443 0 2.736-1.592 4.444-4.115 4.444-2.522 0-4.113-1.708-4.113-4.444zm6.414 0c0-1.872-.858-2.977-2.3-2.977-1.443 0-2.3 1.114-2.3 2.977 0 1.88.857 2.976 2.3 2.976 1.442 0 2.3-1.097 2.3-2.976zm3.28-4.336h1.698v1.476h.041a2.069 2.069 0 012.087-1.567c.205-.001.409.021.609.066V23.1a2.487 2.487 0 00-.799-.107 1.795 1.795 0 00-1.855 1.995v5.144h-1.78V21.46zm12.644 6.125c-.24 1.574-1.773 2.655-3.735 2.655-2.523 0-4.089-1.69-4.089-4.403 0-2.72 1.575-4.484 4.015-4.484 2.399 0 3.908 1.648 3.908 4.277v.61h-6.125v.108a2.258 2.258 0 002.333 2.457 1.96 1.96 0 002.002-1.22h1.691zm-6.018-2.589h4.336a2.086 2.086 0 00-2.127-2.2 2.193 2.193 0 00-2.209 2.2zM41.683 9.282a2.528 2.528 0 012.69 2.84c0 1.826-.987 2.876-2.69 2.876h-2.065V9.282h2.065zm-1.177 4.907h1.078a1.797 1.797 0 001.885-2.055 1.802 1.802 0 00-1.885-2.044h-1.078v4.1zm4.869-1.35a2.043 2.043 0 114.069 0 2.044 2.044 0 11-4.069 0zm3.193 0c0-.935-.42-1.482-1.157-1.482-.74 0-1.156.547-1.156 1.482 0 .942.416 1.485 1.156 1.485.737 0 1.157-.547 1.157-1.485zm6.284 2.159h-.883l-.892-3.177h-.067l-.888 3.177h-.874l-1.19-4.314h.864l.773 3.292h.063l.887-3.292h.817l.887 3.292h.067l.769-3.292h.851l-1.184 4.314zm2.184-4.314h.82v.686h.063a1.291 1.291 0 011.288-.77 1.403 1.403 0 011.493 1.605v2.793h-.852v-2.579c0-.693-.3-1.038-.93-1.038a.99.99 0 00-1.03 1.093v2.524h-.852v-4.314zM62.056 9h.851v5.997h-.851V9zm2.034 3.839a2.044 2.044 0 114.07 0 2.044 2.044 0 11-4.07 0zm3.194 0c0-.935-.42-1.482-1.158-1.482-.74 0-1.156.547-1.156 1.482 0 .942.417 1.485 1.156 1.485.738 0 1.158-.546 1.158-1.485zm1.772.938c0-.776.578-1.224 1.604-1.287l1.169-.068v-.372c0-.456-.301-.713-.883-.713-.475 0-.805.175-.9.48h-.824c.088-.741.785-1.216 1.763-1.216 1.081 0 1.691.538 1.691 1.45v2.946h-.82v-.606h-.066a1.451 1.451 0 01-1.296.677 1.303 1.303 0 01-1.438-1.29zm2.773-.368v-.36l-1.054.067c-.594.04-.863.241-.863.622 0 .388.337.614.8.614a1.017 1.017 0 001.117-.943zm1.965-.57c0-1.363.701-2.227 1.79-2.227a1.424 1.424 0 011.324.757h.063V9h.852v5.997h-.816v-.681h-.068a1.497 1.497 0 01-1.354.752c-1.097 0-1.79-.863-1.79-2.23zm.88 0c0 .915.431 1.465 1.152 1.465.718 0 1.161-.558 1.161-1.462 0-.899-.448-1.465-1.16-1.465-.717 0-1.153.554-1.153 1.462zm6.671 0a2.043 2.043 0 114.068 0 2.044 2.044 0 11-4.068 0zm3.193 0c0-.935-.42-1.482-1.157-1.482-.74 0-1.157.547-1.157 1.482 0 .942.416 1.485 1.156 1.485.738 0 1.158-.547 1.158-1.485zm2.018-2.155h.82v.686h.063a1.291 1.291 0 011.287-.77 1.403 1.403 0 011.493 1.605v2.793h-.85v-2.579c0-.693-.302-1.038-.932-1.038a.99.99 0 00-1.03 1.093v2.524h-.851v-4.314zM95.03 9.61v1.094h.934v.717h-.934v2.218c0 .452.186.65.61.65.108 0 .216-.007.324-.02v.71a2.788 2.788 0 01-.463.043c-.947 0-1.324-.333-1.324-1.165v-2.436h-.684v-.717h.684V9.61h.853zM97.127 9h.844v2.377h.067a1.327 1.327 0 011.315-.773 1.42 1.42 0 011.486 1.609v2.784h-.852v-2.575c0-.689-.321-1.038-.923-1.038a1.007 1.007 0 00-1.086 1.094v2.52h-.851V9zm8.675 4.833a1.75 1.75 0 01-1.869 1.248 1.957 1.957 0 01-1.992-2.227 1.986 1.986 0 011.988-2.253c1.201 0 1.925.82 1.925 2.174v.297h-3.046v.048a1.139 1.139 0 001.149 1.236c.416.05.822-.157 1.026-.523h.819zm-2.994-1.39h2.179a1.045 1.045 0 00-1.062-1.118 1.102 1.102 0 00-1.117 1.118z" fill="#fff"/></svg>