<svg width="125" height="42" fill="none" xmlns="http://www.w3.org/2000/svg"><rect x=".5" y=".5" width="124" height="41" rx="6.5" fill="#000" stroke="#fff"/><path d="M44.476 11.976a2.398 2.398 0 01-.66 1.76 2.553 2.553 0 01-1.938.775 2.641 2.641 0 01-1.945-.792 2.809 2.809 0 010-3.927 2.782 2.782 0 013.028-.572c.318.13.601.332.828.59l-.467.466a1.761 1.761 0 00-1.444-.633 2.113 2.113 0 101.48 3.636 1.69 1.69 0 00.44-1.074h-1.92v-.634h2.563c.02.134.031.27.035.405zm4.031-2.201H46.13v1.672h2.166v.634H46.13v1.673h2.377v.652h-3.064V9.122h3.064v.652zm2.888 4.63h-.678v-4.63h-1.479v-.652h3.672v.652h-1.515v4.63zm4.103 0V9.123h.678v5.283h-.678zm3.689 0h-.678v-4.63H57.03v-.652h3.627v.652h-1.47v4.63zm8.346-.686a2.738 2.738 0 01-3.873 0 2.853 2.853 0 010-3.91 2.58 2.58 0 011.937-.8 2.641 2.641 0 011.936.8c.512.521.791 1.226.775 1.955a2.642 2.642 0 01-.775 1.955zm-3.372-.44a2.016 2.016 0 002.87 0 2.236 2.236 0 000-3.029 2.016 2.016 0 00-2.87 0 2.236 2.236 0 000 3.029zm5.107 1.126V9.123h.819l2.57 4.112V9.123h.678v5.283h-.704L69.946 10.1v4.306h-.678z" fill="#fff" stroke="#fff" stroke-width=".734"/><path d="M62.718 22.109a3.75 3.75 0 103.76 3.741 3.69 3.69 0 00-3.76-3.741zm0 6.013a2.271 2.271 0 112.113-2.272 2.166 2.166 0 01-2.113 2.272zm-8.206-6.013a3.75 3.75 0 103.76 3.741 3.69 3.69 0 00-3.76-3.741zm0 6.013a2.271 2.271 0 112.113-2.272 2.165 2.165 0 01-2.113 2.272zm-9.755-4.86v1.585h3.804a3.32 3.32 0 01-.88 1.998 3.89 3.89 0 01-2.941 1.162 4.226 4.226 0 110-8.452 4.085 4.085 0 012.887 1.136l1.118-1.118a5.546 5.546 0 00-3.988-1.602 5.82 5.82 0 100 11.63c1.524.06 3-.532 4.059-1.629a5.282 5.282 0 001.373-3.724c.004-.33-.023-.66-.079-.986h-5.353zm39.892 1.233a3.521 3.521 0 00-3.205-2.386 3.522 3.522 0 00-3.522 3.741 3.724 3.724 0 006.832 2.087l-1.276-.88a2.122 2.122 0 01-1.84 1.03 1.893 1.893 0 01-1.814-1.136l5.01-2.069-.185-.387zm-5.107 1.25a2.06 2.06 0 011.964-2.192c.58-.036 1.124.28 1.382.8l-3.346 1.392zm-4.067 3.627h1.646V18.367h-1.646v11.005zm-2.694-6.427h-.062a2.588 2.588 0 00-1.972-.88 3.75 3.75 0 000 7.492 2.536 2.536 0 001.972-.88h.062v.537c0 1.435-.766 2.2-1.999 2.2a2.078 2.078 0 01-1.893-1.329l-1.426.59a3.522 3.522 0 003.32 2.219c1.927 0 3.521-1.136 3.521-3.9v-6.665h-1.523v.616zm-1.893 5.177a2.272 2.272 0 010-4.534 2.104 2.104 0 012.007 2.262 2.095 2.095 0 01-2.007 2.272zm21.473-9.755h-3.944v11.005h1.646V25.2h2.298a3.425 3.425 0 100-6.832zm0 5.282h-2.298V19.9h2.334a1.884 1.884 0 110 3.768l-.036-.018zm10.16-1.576a3.073 3.073 0 00-2.932 1.682l1.453.608c.3-.541.89-.855 1.506-.802a1.583 1.583 0 011.76 1.418v.105a3.675 3.675 0 00-1.716-.422c-1.567 0-3.17.88-3.17 2.483a2.545 2.545 0 002.738 2.42 2.335 2.335 0 002.096-1.073h.052v.88h1.585v-4.235c0-1.928-1.461-3.046-3.337-3.046l-.035-.018zm-.202 6.031c-.537 0-1.286-.273-1.286-.933 0-.88.934-1.18 1.761-1.18a2.924 2.924 0 011.497.37 1.99 1.99 0 01-1.937 1.76l-.035-.017zm9.35-5.775l-1.884 4.772h-.053l-1.955-4.772h-1.761l2.932 6.673-1.673 3.707h1.717l4.508-10.38h-1.831zm-14.791 7.043h1.637V18.367h-1.637v11.005z" fill="#fff"/><path d="M11.918 9.599a1.76 1.76 0 00-.414 1.232v19.475c-.03.45.119.892.414 1.233l.061.07 10.909-10.908v-.264l-10.909-10.9-.061.062z" fill="url(#paint0_linear)"/><path d="M26.497 24.336l-3.61-3.636v-.264l3.61-3.636.08.053 4.322 2.447c1.233.696 1.233 1.84 0 2.545l-4.305 2.447-.097.044z" fill="url(#paint1_linear)"/><path d="M26.603 24.285l-3.715-3.716-10.97 10.97c.513.457 1.28.483 1.822.062l12.863-7.316z" fill="url(#paint2_linear)"/><path d="M26.603 16.853L13.74 9.545a1.418 1.418 0 00-1.822.053l10.97 10.97 3.715-3.715z" fill="url(#paint3_linear)"/><path opacity=".2" d="M26.497 24.205L13.74 31.468a1.461 1.461 0 01-1.76 0l-.062.062.061.07c.521.393 1.24.393 1.761 0l12.863-7.316-.106-.08z" fill="#000"/><path opacity=".12" d="M11.918 31.415a1.76 1.76 0 01-.388-1.241v.132c-.03.45.119.892.414 1.232l.061-.061-.088-.062zM30.9 21.714l-4.403 2.491.08.08 4.322-2.448c.52-.22.878-.706.934-1.268a1.638 1.638 0 01-.934 1.145z" fill="#000"/><path opacity=".25" d="M13.74 9.669l17.16 9.755c.475.212.821.636.933 1.145a1.541 1.541 0 00-.934-1.268L13.74 9.546c-1.224-.705-2.236-.124-2.236 1.285v.132c.026-1.408 1.012-1.99 2.236-1.294z" fill="#fff"/><defs><linearGradient id="paint0_linear" x1="18.452" y1="10.629" x2="9.099" y2="19.982" gradientUnits="userSpaceOnUse"><stop stop-color="#00A0FF"/><stop offset=".01" stop-color="#00A1FF"/><stop offset=".26" stop-color="#00BEFF"/><stop offset=".51" stop-color="#00D2FF"/><stop offset=".76" stop-color="#00DFFF"/><stop offset="1" stop-color="#00E3FF"/></linearGradient><linearGradient id="paint1_linear" x1="32.51" y1="20.568" x2="11.213" y2="20.568" gradientUnits="userSpaceOnUse"><stop stop-color="#FFE000"/><stop offset=".41" stop-color="#FFBD00"/><stop offset=".78" stop-color="orange"/><stop offset="1" stop-color="#FF9C00"/></linearGradient><linearGradient id="paint2_linear" x1="24.587" y1="24.067" x2="8.601" y2="40.046" gradientUnits="userSpaceOnUse"><stop stop-color="#FF3A44"/><stop offset="1" stop-color="#C31162"/></linearGradient><linearGradient id="paint3_linear" x1="9.153" y1="7.89" x2="16.287" y2="15.024" gradientUnits="userSpaceOnUse"><stop stop-color="#32A071"/><stop offset=".07" stop-color="#2DA771"/><stop offset=".48" stop-color="#15CF74"/><stop offset=".8" stop-color="#06E775"/><stop offset="1" stop-color="#00F076"/></linearGradient></defs></svg>