<?xml version="1.0" encoding="utf-8"?>
<!-- Generator: Adobe Illustrator 24.2.0, SVG Export Plug-In . SVG Version: 6.00 Build 0)  -->
<svg version="1.1" id="Layer_1" xmlns="http://www.w3.org/2000/svg" xmlns:xlink="http://www.w3.org/1999/xlink" x="0px" y="0px"
	 viewBox="0 0 146 36" enable-background="new 0 0 146 36" xml:space="preserve">
<rect fill="none" width="146" height="35.9"/>
<path fill="#009179" d="M79.8,0.2c-0.1,0-1.8,0.3-3.6,0.4c-1.7,0.1-4-0.2-5.7,2.4c-1.1,1.6-1,3.1-0.9,4.1c0.1,1.2,0.2,2.1,0.2,2.1
	l3.4-2.9l3.5-3c0,0,0.1-0.1,0.1-0.1s-0.1,0.1-0.1,0.2l-2.4,3l-3.2,4.1c0,0,1,0.1,2.1,0.1c2.6,0,4-0.4,4.9-1.3C79.8,7.6,80,6,80,4.4
	C80.1,2.8,79.8,0.3,79.8,0.2z"/>
<path d="M13,13l-4.3,8.3H8.6L4.4,13H0.3l8.4,15l8.1-15H13z"/>
<path d="M27.6,18.9c0-1.1-0.4-2-1-2.6c-0.7-0.6-1.6-1-2.8-1c-1.1,0-2,0.3-2.7,1c-0.6,0.6-1.1,1.5-1.2,2.6H27.6z M19.9,21.8
	c0.1,1.1,0.6,2,1.3,2.6c0.8,0.6,1.7,0.9,2.7,0.9c0.9,0,2-0.1,2.8-0.4c0.7-0.3,1-0.5,1.8-1.1l2.2,2.2c-1.2,1-1.7,1.2-2.8,1.7
	c-1.1,0.4-2.4,0.6-3.6,0.6c-1.1,0-2.2-0.2-3.2-0.6c-1-0.4-1.9-0.9-2.6-1.6c-0.7-0.7-1.3-1.5-1.7-2.5c-0.4-1-0.6-2.1-0.6-3.2
	c0-1.2,0.2-2.3,0.6-3.2c0.4-1,1-1.8,1.7-2.5c0.7-0.7,1.6-1.2,2.6-1.6c1-0.4,2.1-0.6,3.2-0.6c1,0,2,0.2,2.9,0.5
	c0.9,0.4,1.6,0.9,2.2,1.6c0.6,0.7,1.1,1.5,1.4,2.6c0.3,1,0.5,2.2,0.5,3.5v1H19.9z"/>
<path d="M73.8,13h-3.8v15h3.8V13z"/>
<path d="M87.6,18.9c0-1.1-0.4-2-1-2.6c-0.7-0.6-1.6-1-2.8-1c-1.1,0-2,0.3-2.7,1c-0.6,0.6-1.1,1.5-1.2,2.6H87.6z M79.9,21.8
	c0.1,1.1,0.6,2,1.3,2.6c0.8,0.6,1.7,0.9,2.7,0.9c0.9,0,1.7-0.2,2.4-0.6c0.6-0.4,1.2-0.9,1.7-1.5l2.7,2c-0.9,1.1-1.9,1.9-3,2.3
	c-1.1,0.4-2.2,0.7-3.4,0.7c-1.1,0-2.2-0.2-3.2-0.6c-1-0.4-1.9-0.9-2.6-1.6c-0.7-0.7-1.3-1.5-1.7-2.5c-0.4-1-0.6-2.1-0.6-3.2
	c0-1.2,0.2-2.3,0.6-3.2c0.4-1,1-1.8,1.7-2.5c0.7-0.7,1.6-1.2,2.6-1.6c1-0.4,2.1-0.6,3.2-0.6c1,0,2,0.2,2.9,0.5
	c0.9,0.4,1.6,0.9,2.2,1.6c0.6,0.7,1.1,1.5,1.4,2.6c0.3,1,0.5,2.2,0.5,3.5v1L79.9,21.8L79.9,21.8z"/>
<path d="M123.4,13h3.8v15h-3.8V13z M123.1,8.1c0-0.5,0.2-1,0.6-1.4c0.4-0.4,0.9-0.6,1.5-0.6c0.6,0,1.1,0.2,1.5,0.6
	c0.4,0.4,0.6,0.9,0.6,1.4c0,0.6-0.2,1.1-0.6,1.4c-0.4,0.4-0.9,0.6-1.5,0.6c-0.6,0-1.1-0.2-1.5-0.6C123.3,9.1,123.1,8.7,123.1,8.1z"
	/>
<path d="M133.8,4.3H130V28h3.8V4.3z"/>
<path d="M140,4.3h-3.8V28h3.8V4.3z"/>
<path d="M44.3,17.2c0.5,0.6,0.9,1.2,1.1,2v2.3c-0.1,0.2-0.1,0.4-0.2,0.6c-0.2,0.5-0.5,1-0.9,1.4c-0.4,0.4-0.8,0.7-1.4,0.9
	c-0.6,0.2-1.2,0.3-1.9,0.3c-0.6,0-1.2-0.1-1.7-0.3c-0.5-0.2-1-0.5-1.4-0.9c-0.4-0.4-0.7-0.8-0.9-1.4c-0.2-0.5-0.3-1.1-0.3-1.7
	c0-0.7,0.1-1.3,0.3-1.8c0.2-0.6,0.5-1,0.9-1.4c0.4-0.4,0.8-0.7,1.4-0.9c0.5-0.2,1.2-0.3,1.8-0.3C42.4,16,43.5,16.4,44.3,17.2z
	 M49.1,23.8v-9.7c0,0,0-1.5-1.5-1.5h-0.7c0,0-1,0-1.4,0.8c-0.4-0.3-0.8-0.5-1.3-0.7c-1.3-0.3-2.2-0.5-3.9-0.4
	c-1.2,0.1-2.2,0.4-3.1,0.8c-0.9,0.4-1.7,1-2.3,1.7c-0.6,0.7-1.1,1.5-1.5,2.5c-0.3,1-0.5,2-0.5,3.1c0,1.1,0.2,2.1,0.5,3
	c0.4,0.9,0.9,1.7,1.5,2.4s1.4,1.2,2.4,1.6c0.9,0.4,1.9,0.6,3.1,0.6c0.9,0,1.9-0.2,2.8-0.5c0.9-0.4,1.6-0.9,2.2-1.6h0.1v1.1
	c0,0.8,0,0.9-0.1,1.6c-0.1,2.1-1.5,2.6-2.2,2.8c-0.6,0.3-1.6,0.3-2.5,0.3c-1.1,0-1.8-0.1-2.8-0.4c-1.1-0.2-1.5-0.4-2.6-0.9l-0.6,3.5
	c1.1,0.5,1.2,0.5,2.1,0.7c1.3,0.4,2.6,0.6,4,0.6c1.5,0,3-0.1,4-0.6c1.1-0.4,1.7-0.9,2.6-1.8c0.7-0.8,1-1.6,1.4-2.7
	c0.3-1.1,0.4-2.3,0.4-3.7c0,0,0-1.1,0-2.5C49.1,24.1,49.1,24,49.1,23.8z"/>
<path d="M62.4,17.2c0.5,0.6,0.9,1.2,1.1,2v2.3c-0.1,0.2-0.1,0.4-0.2,0.6c-0.2,0.5-0.5,1-0.9,1.4C62,24,61.6,24.3,61,24.5
	c-0.6,0.2-1.2,0.3-1.9,0.3c-0.6,0-1.2-0.1-1.7-0.3c-0.5-0.2-1-0.5-1.4-0.9c-0.4-0.4-0.7-0.8-0.9-1.4c-0.2-0.5-0.3-1.1-0.3-1.7
	c0-0.7,0.1-1.3,0.3-1.8c0.2-0.6,0.5-1,0.9-1.4c0.4-0.4,0.8-0.7,1.4-0.9c0.5-0.2,1.2-0.3,1.8-0.3C60.6,16,61.6,16.4,62.4,17.2z
	 M67.2,23.8v-9.7c0,0,0-1.5-1.5-1.5H65c0,0-1,0-1.4,0.8c-0.4-0.3-0.8-0.5-1.3-0.7c-1.3-0.3-2.2-0.5-3.9-0.4
	c-1.2,0.1-2.2,0.4-3.1,0.8c-0.9,0.4-1.7,1-2.3,1.7c-0.6,0.7-1.1,1.5-1.5,2.5c-0.3,1-0.5,2-0.5,3.1c0,1.1,0.2,2.1,0.5,3
	c0.4,0.9,0.9,1.7,1.5,2.4c0.6,0.7,1.4,1.2,2.4,1.6c0.9,0.4,1.9,0.6,3.1,0.6c0.9,0,1.9-0.2,2.8-0.5c0.9-0.4,1.6-0.9,2.2-1.6h0.1v1.1
	c0,0.8,0,0.9-0.1,1.6c-0.1,2.1-1.5,2.6-2.2,2.8c-0.6,0.3-1.6,0.3-2.5,0.3c-1.1,0-1.8-0.1-2.8-0.4c-1.1-0.2-1.5-0.4-2.6-0.9l-0.6,3.5
	c1.1,0.5,1.2,0.5,2.1,0.7c1.3,0.4,2.6,0.6,4,0.6c1.5,0,3-0.1,4-0.6c1.1-0.4,1.7-0.9,2.6-1.8c0.7-0.8,1-1.6,1.4-2.7
	c0.3-1.1,0.4-2.3,0.4-3.7c0,0,0-1.1,0-2.5C67.2,24.1,67.2,24,67.2,23.8z"/>
<path d="M104.5,17.2c0.5,0.6,0.9,1.2,1.1,2v2.3c-0.1,0.2-0.1,0.4-0.2,0.6c-0.2,0.5-0.5,1-0.9,1.4c-0.4,0.4-0.8,0.7-1.4,0.9
	c-0.6,0.2-1.2,0.3-1.9,0.3c-0.6,0-1.2-0.1-1.7-0.3c-0.5-0.2-1-0.5-1.4-0.9c-0.4-0.4-0.7-0.8-0.9-1.4c-0.2-0.5-0.3-1.1-0.3-1.7
	c0-0.7,0.1-1.3,0.3-1.8c0.2-0.6,0.5-1,0.9-1.4c0.4-0.4,0.8-0.7,1.4-0.9c0.5-0.2,1.2-0.3,1.8-0.3C102.6,16,103.7,16.4,104.5,17.2z
	 M109.3,23.8v-9.7c0,0,0-1.5-1.5-1.5h-0.7c0,0-1,0-1.4,0.8c-0.4-0.3-0.8-0.5-1.3-0.7c-1.3-0.3-2.2-0.5-3.9-0.4
	c-1.2,0.1-2.2,0.4-3.1,0.8c-0.9,0.4-1.7,1-2.3,1.7c-0.6,0.7-1.1,1.5-1.5,2.5c-0.3,1-0.5,2-0.5,3.1c0,1.1,0.2,2.1,0.5,3
	c0.4,0.9,0.9,1.7,1.5,2.4c0.6,0.7,1.4,1.2,2.4,1.6c0.9,0.4,1.9,0.6,3.1,0.6c0.9,0,1.9-0.2,2.8-0.5c0.9-0.4,1.6-0.9,2.2-1.6h0.1v1.1
	c0,0.8,0,0.9-0.1,1.6c-0.1,2.1-1.5,2.6-2.2,2.8c-0.6,0.3-1.6,0.3-2.5,0.3c-1.1,0-1.8-0.1-2.8-0.4c-1.1-0.2-1.5-0.4-2.6-0.9l-0.6,3.5
	c1.1,0.5,1.2,0.5,2.1,0.7c1.3,0.4,2.6,0.6,4,0.6c1.5,0,3-0.1,4-0.6c1.1-0.4,1.7-0.9,2.6-1.8c0.7-0.8,1-1.6,1.4-2.7
	c0.3-1.1,0.4-2.3,0.4-3.7c0,0,0-1.1,0-2.5C109.3,24.1,109.3,24,109.3,23.8z"/>
<path d="M121.2,16.2v-3.4c-0.2-0.1-0.4-0.1-0.7-0.2c-0.6-0.1-1.3-0.1-1.5,0c-1.6,0.1-2.6,0.6-3.7,1.3c-0.1-0.4-0.4-1.2-1.5-1.2h-0.7
	c0,0-1.5,0-1.5,1.5v9.7c0,0,0,0.1,0,0.2v4h3.8v-8c0-0.2,0.1-0.5,0.1-0.9c0.1-0.4,0.3-0.8,0.6-1.3c0.3-0.4,0.7-0.8,1.2-1.1
	c0.5-0.3,1.2-0.5,2.1-0.5C119.7,16.1,120.9,16.2,121.2,16.2z"/>
<path d="M142.8,28v-1.5h-0.6v-0.3h1.5v0.3H143V28H142.8z M143.8,28v-1.8h0.5l0.4,1.4l0.4-1.4h0.4V28h-0.3v-1.5l-0.4,1.5h-0.3
	l-0.5-1.5V28H143.8z"/>
</svg>
